<svg xmlns="http://www.w3.org/2000/svg" version="1.1" xmlns:xlink="http://www.w3.org/1999/xlink" xmlns:svgjs="http://svgjs.com/svgjs" width="900" height="1600" preserveAspectRatio="none" viewBox="0 0 900 1600"><g mask="url(&quot;#SvgjsMask1039&quot;)" fill="none"><rect width="900" height="1600" x="0" y="0" fill="rgba(252, 234, 210, 1)"></rect><path d="M0,680.213C123.93,660.621,191.635,530.089,294.458,458.186C391.97,389.997,519.017,365.371,588.434,268.729C664.633,162.644,727.246,26.688,695.383,-99.981C663.79,-225.575,529.346,-290.383,427.627,-370.541C343.621,-436.74,251.575,-481.291,154.508,-526.206C39.733,-579.315,-73.342,-698.302,-193.142,-657.782C-313.958,-616.918,-324.25,-448.05,-393.404,-340.886C-450.832,-251.893,-528.964,-180.792,-565.175,-81.26C-608.076,36.659,-658.485,163.782,-620.523,283.383C-581.349,406.8,-470.143,492.054,-361.057,561.815C-252.147,631.464,-127.69,700.399,0,680.213" fill="#f6c27b"></path><path d="M900 2284.068C1027.512 2278.362 1146.286 2217.81 1245.191 2137.127 1337.296 2061.991 1376.118 1947.242 1437.5990000000002 1845.513 1508.337 1728.466 1653.627 1629.811 1633.55 1494.531 1613.458 1359.153 1441.92 1310.897 1344.056 1215.223 1256.193 1129.327 1201.451 1007.244 1087.667 960.864 969.08 912.526 827.776 904.106 711.285 957.296 599.164 1008.49 553.627 1137.449 481.705 1237.545 416.931 1327.693 342.568 1408.9859999999999 310.39300000000003 1515.227 274.361 1634.201 246.88300000000004 1762.268 287.17499999999995 1879.868 329.11800000000005 2002.286 426.344 2097.687 534.367 2168.936 643.238 2240.744 769.711 2289.898 900 2284.068" fill="#ffffff"></path></g><defs><mask id="SvgjsMask1039"><rect width="900" height="1600" fill="#ffffff"></rect></mask></defs></svg>