<svg id="visual" viewBox="0 0 540 960" width="540" height="960" xmlns="http://www.w3.org/2000/svg" xmlns:xlink="http://www.w3.org/1999/xlink" version="1.1"><g stroke-width="1" stroke-linejoin="bevel"><path d="M303 462L316.5 484L377 474Z" fill="#a59adf" stroke="#a59adf"></path><path d="M377 474L372.5 393L303 462Z" fill="#be9fc8" stroke="#be9fc8"></path><path d="M377 474L401 399L372.5 393Z" fill="#ad9ada" stroke="#ad9ada"></path><path d="M375.5 546L432 473L377 474Z" fill="#a99adc" stroke="#a99adc"></path><path d="M377 474L432 473L401 399Z" fill="#ad9ada" stroke="#ad9ada"></path><path d="M316.5 484L375.5 546L377 474Z" fill="#b39bd4" stroke="#b39bd4"></path><path d="M432 473L454.5 434L401 399Z" fill="#b39bd4" stroke="#b39bd4"></path><path d="M454.5 434L449.5 411L401 399Z" fill="#b69cd1" stroke="#b69cd1"></path><path d="M240 525L276 547L316.5 484Z" fill="#b69cd1" stroke="#b69cd1"></path><path d="M316.5 484L276 547L375.5 546Z" fill="#ad9ada" stroke="#ad9ada"></path><path d="M271 349L229.5 400L303 462Z" fill="#b09bd7" stroke="#b09bd7"></path><path d="M303 462L240 525L316.5 484Z" fill="#be9fc8" stroke="#be9fc8"></path><path d="M194.5 453L240 525L303 462Z" fill="#b69cd1" stroke="#b69cd1"></path><path d="M367 318L271 349L372.5 393Z" fill="#ad9ada" stroke="#ad9ada"></path><path d="M372.5 393L271 349L303 462Z" fill="#b89ccf" stroke="#b89ccf"></path><path d="M367 318L372.5 393L401 399Z" fill="#bc9eca" stroke="#bc9eca"></path><path d="M373.5 600L429 556L375.5 546Z" fill="#b69cd1" stroke="#b69cd1"></path><path d="M375.5 546L429 556L432 473Z" fill="#be9fc8" stroke="#be9fc8"></path><path d="M432 473L497.5 507L454.5 434Z" fill="#a09ae2" stroke="#a09ae2"></path><path d="M453.5 352L367 318L401 399Z" fill="#be9fc8" stroke="#be9fc8"></path><path d="M229.5 400L194.5 453L303 462Z" fill="#b09bd7" stroke="#b09bd7"></path><path d="M540 414L453.5 352L449.5 411Z" fill="#b09bd7" stroke="#b09bd7"></path><path d="M449.5 411L453.5 352L401 399Z" fill="#b69cd1" stroke="#b69cd1"></path><path d="M326.5 620L373.5 600L375.5 546Z" fill="#a59adf" stroke="#a59adf"></path><path d="M367 318L302 305L271 349Z" fill="#a09ae2" stroke="#a09ae2"></path><path d="M271 349L188.5 312L229.5 400Z" fill="#b39bd4" stroke="#b39bd4"></path><path d="M367 318L315.5 297L302 305Z" fill="#ad9ada" stroke="#ad9ada"></path><path d="M361.5 271L315.5 297L367 318Z" fill="#ba9dcd" stroke="#ba9dcd"></path><path d="M497.5 565L497.5 507L429 556Z" fill="#bc9eca" stroke="#bc9eca"></path><path d="M429 556L497.5 507L432 473Z" fill="#ba9dcd" stroke="#ba9dcd"></path><path d="M454.5 434L540 414L449.5 411Z" fill="#b69cd1" stroke="#b69cd1"></path><path d="M240 525L204.5 543L276 547Z" fill="#ba9dcd" stroke="#ba9dcd"></path><path d="M276 547L326.5 620L375.5 546Z" fill="#bc9eca" stroke="#bc9eca"></path><path d="M167.5 514L204.5 543L240 525Z" fill="#ad9ada" stroke="#ad9ada"></path><path d="M225.5 649L326.5 620L276 547Z" fill="#b09bd7" stroke="#b09bd7"></path><path d="M436.5 251L361.5 271L367 318Z" fill="#bc9eca" stroke="#bc9eca"></path><path d="M194.5 453L167.5 514L240 525Z" fill="#a09ae2" stroke="#a09ae2"></path><path d="M394 665L429 556L373.5 600Z" fill="#ba9dcd" stroke="#ba9dcd"></path><path d="M508.5 610L497.5 565L429 556Z" fill="#a99adc" stroke="#a99adc"></path><path d="M540 555L540 478L497.5 507Z" fill="#a59adf" stroke="#a59adf"></path><path d="M497.5 507L540 478L454.5 434Z" fill="#a09ae2" stroke="#a09ae2"></path><path d="M124 468L147 500L194.5 453Z" fill="#ba9dcd" stroke="#ba9dcd"></path><path d="M194.5 453L147 500L167.5 514Z" fill="#b69cd1" stroke="#b69cd1"></path><path d="M161 615L225.5 649L204.5 543Z" fill="#b89ccf" stroke="#b89ccf"></path><path d="M141 383L194.5 453L229.5 400Z" fill="#a99adc" stroke="#a99adc"></path><path d="M540 478L540 414L454.5 434Z" fill="#b09bd7" stroke="#b09bd7"></path><path d="M453.5 352L436.5 251L367 318Z" fill="#be9fc8" stroke="#be9fc8"></path><path d="M205.5 265L271 349L302 305Z" fill="#a59adf" stroke="#a59adf"></path><path d="M205.5 265L188.5 312L271 349Z" fill="#b89ccf" stroke="#b89ccf"></path><path d="M303 243L302 305L315.5 297Z" fill="#b09bd7" stroke="#b09bd7"></path><path d="M188.5 312L141 383L229.5 400Z" fill="#a59adf" stroke="#a59adf"></path><path d="M361.5 271L303 243L315.5 297Z" fill="#b39bd4" stroke="#b39bd4"></path><path d="M379 692L394 665L326.5 620Z" fill="#ba9dcd" stroke="#ba9dcd"></path><path d="M326.5 620L394 665L373.5 600Z" fill="#be9fc8" stroke="#be9fc8"></path><path d="M141 383L124 468L194.5 453Z" fill="#bc9eca" stroke="#bc9eca"></path><path d="M508.5 610L540 555L497.5 565Z" fill="#b09bd7" stroke="#b09bd7"></path><path d="M497.5 565L540 555L497.5 507Z" fill="#b89ccf" stroke="#b89ccf"></path><path d="M540 338L436.5 251L453.5 352Z" fill="#ba9dcd" stroke="#ba9dcd"></path><path d="M361.5 271L364 229L303 243Z" fill="#ad9ada" stroke="#ad9ada"></path><path d="M540 414L540 347L453.5 352Z" fill="#b69cd1" stroke="#b69cd1"></path><path d="M436.5 251L364 229L361.5 271Z" fill="#a09ae2" stroke="#a09ae2"></path><path d="M161 615L204.5 543L167.5 514Z" fill="#a99adc" stroke="#a99adc"></path><path d="M204.5 543L225.5 649L276 547Z" fill="#b09bd7" stroke="#b09bd7"></path><path d="M161 615L167.5 514L147 500Z" fill="#b39bd4" stroke="#b39bd4"></path><path d="M540 347L540 338L453.5 352Z" fill="#a59adf" stroke="#a59adf"></path><path d="M394 665L508.5 610L429 556Z" fill="#b39bd4" stroke="#b39bd4"></path><path d="M303 243L205.5 265L302 305Z" fill="#ad9ada" stroke="#ad9ada"></path><path d="M188.5 312L98 321L141 383Z" fill="#b89ccf" stroke="#b89ccf"></path><path d="M270 218L205.5 265L303 243Z" fill="#bc9eca" stroke="#bc9eca"></path><path d="M436.5 251L440.5 232L364 229Z" fill="#b09bd7" stroke="#b09bd7"></path><path d="M540 246L440.5 232L436.5 251Z" fill="#b89ccf" stroke="#b89ccf"></path><path d="M356.5 713L379 692L326.5 620Z" fill="#b09bd7" stroke="#b09bd7"></path><path d="M480.5 714L540 651L508.5 610Z" fill="#b09bd7" stroke="#b09bd7"></path><path d="M46.5 517L161 615L147 500Z" fill="#ad9ada" stroke="#ad9ada"></path><path d="M353.5 158L303 243L364 229Z" fill="#be9fc8" stroke="#be9fc8"></path><path d="M353.5 158L270 218L303 243Z" fill="#a09ae2" stroke="#a09ae2"></path><path d="M204.5 665L233 676L225.5 649Z" fill="#b69cd1" stroke="#b69cd1"></path><path d="M225.5 649L233 676L326.5 620Z" fill="#be9fc8" stroke="#be9fc8"></path><path d="M171 653L204.5 665L225.5 649Z" fill="#b69cd1" stroke="#b69cd1"></path><path d="M141 383L85.5 476L124 468Z" fill="#a59adf" stroke="#a59adf"></path><path d="M124 468L85.5 476L147 500Z" fill="#ba9dcd" stroke="#ba9dcd"></path><path d="M30.5 382L85.5 476L141 383Z" fill="#be9fc8" stroke="#be9fc8"></path><path d="M233 676L356.5 713L326.5 620Z" fill="#b09bd7" stroke="#b09bd7"></path><path d="M480.5 714L508.5 610L394 665Z" fill="#a99adc" stroke="#a99adc"></path><path d="M94 706L171 653L161 615Z" fill="#a59adf" stroke="#a59adf"></path><path d="M161 615L171 653L225.5 649Z" fill="#ad9ada" stroke="#ad9ada"></path><path d="M195.5 749L232 741L233 676Z" fill="#ba9dcd" stroke="#ba9dcd"></path><path d="M95.5 311L188.5 312L114 253Z" fill="#a59adf" stroke="#a59adf"></path><path d="M95.5 311L98 321L188.5 312Z" fill="#a09ae2" stroke="#a09ae2"></path><path d="M480.5 714L394 665L379 692Z" fill="#a99adc" stroke="#a99adc"></path><path d="M508.5 610L540 651L540 555Z" fill="#ba9dcd" stroke="#ba9dcd"></path><path d="M114 253L188.5 312L205.5 265Z" fill="#a59adf" stroke="#a59adf"></path><path d="M0 474L46.5 517L85.5 476Z" fill="#a09ae2" stroke="#a09ae2"></path><path d="M540 338L540 246L436.5 251Z" fill="#bc9eca" stroke="#bc9eca"></path><path d="M415 172L364 229L440.5 232Z" fill="#a59adf" stroke="#a59adf"></path><path d="M415 172L385 168L364 229Z" fill="#a99adc" stroke="#a99adc"></path><path d="M259 93L226.5 188L270 218Z" fill="#b09bd7" stroke="#b09bd7"></path><path d="M270 218L226.5 188L205.5 265Z" fill="#ba9dcd" stroke="#ba9dcd"></path><path d="M540 212L415 172L440.5 232Z" fill="#bc9eca" stroke="#bc9eca"></path><path d="M359.5 102L353.5 158L385 168Z" fill="#a09ae2" stroke="#a09ae2"></path><path d="M385 168L353.5 158L364 229Z" fill="#b69cd1" stroke="#b69cd1"></path><path d="M380 764L480.5 714L379 692Z" fill="#a09ae2" stroke="#a09ae2"></path><path d="M30.5 382L141 383L98 321Z" fill="#b69cd1" stroke="#b69cd1"></path><path d="M85.5 476L46.5 517L147 500Z" fill="#b39bd4" stroke="#b39bd4"></path><path d="M149 217L114 253L205.5 265Z" fill="#a09ae2" stroke="#a09ae2"></path><path d="M226.5 188L149 217L205.5 265Z" fill="#b89ccf" stroke="#b89ccf"></path><path d="M195.5 749L233 676L204.5 665Z" fill="#a09ae2" stroke="#a09ae2"></path><path d="M233 676L232 741L356.5 713Z" fill="#a99adc" stroke="#a99adc"></path><path d="M356.5 713L380 764L379 692Z" fill="#b69cd1" stroke="#b69cd1"></path><path d="M195.5 749L204.5 665L171 653Z" fill="#b89ccf" stroke="#b89ccf"></path><path d="M540 246L540 212L440.5 232Z" fill="#b09bd7" stroke="#b09bd7"></path><path d="M359.5 773L380 764L356.5 713Z" fill="#a09ae2" stroke="#a09ae2"></path><path d="M93.5 221L79.5 271L114 253Z" fill="#ba9dcd" stroke="#ba9dcd"></path><path d="M114 253L79.5 271L95.5 311Z" fill="#b09bd7" stroke="#b09bd7"></path><path d="M0 335L30.5 382L98 321Z" fill="#b69cd1" stroke="#b69cd1"></path><path d="M0 335L98 321L95.5 311Z" fill="#b69cd1" stroke="#b69cd1"></path><path d="M306 789L359.5 773L356.5 713Z" fill="#b89ccf" stroke="#b89ccf"></path><path d="M94 706L195.5 749L171 653Z" fill="#ba9dcd" stroke="#ba9dcd"></path><path d="M232 741L306 789L356.5 713Z" fill="#be9fc8" stroke="#be9fc8"></path><path d="M299.5 815L306 789L232 741Z" fill="#a59adf" stroke="#a59adf"></path><path d="M540 769L540 728L480.5 714Z" fill="#a09ae2" stroke="#a09ae2"></path><path d="M480.5 714L540 728L540 651Z" fill="#ba9dcd" stroke="#ba9dcd"></path><path d="M446.5 793L480.5 714L380 764Z" fill="#b89ccf" stroke="#b89ccf"></path><path d="M446.5 793L380 764L422 817Z" fill="#b89ccf" stroke="#b89ccf"></path><path d="M149 217L93.5 221L114 253Z" fill="#ad9ada" stroke="#ad9ada"></path><path d="M0 401L0 430L30.5 382Z" fill="#a09ae2" stroke="#a09ae2"></path><path d="M150 154L93.5 221L149 217Z" fill="#bc9eca" stroke="#bc9eca"></path><path d="M0 430L0 474L85.5 476Z" fill="#b89ccf" stroke="#b89ccf"></path><path d="M46.5 517L31.5 611L161 615Z" fill="#a99adc" stroke="#a99adc"></path><path d="M0 401L30.5 382L0 335Z" fill="#b39bd4" stroke="#b39bd4"></path><path d="M30.5 382L0 430L85.5 476Z" fill="#a09ae2" stroke="#a09ae2"></path><path d="M0 335L95.5 311L79.5 271Z" fill="#a09ae2" stroke="#a09ae2"></path><path d="M0 611L31.5 611L46.5 517Z" fill="#bc9eca" stroke="#bc9eca"></path><path d="M369 82L359.5 102L415 172Z" fill="#b69cd1" stroke="#b69cd1"></path><path d="M415 172L359.5 102L385 168Z" fill="#a09ae2" stroke="#a09ae2"></path><path d="M353.5 158L259 93L270 218Z" fill="#b69cd1" stroke="#b69cd1"></path><path d="M226.5 188L150 154L149 217Z" fill="#b39bd4" stroke="#b39bd4"></path><path d="M48.5 670L94 706L161 615Z" fill="#be9fc8" stroke="#be9fc8"></path><path d="M215.5 91L150 154L226.5 188Z" fill="#be9fc8" stroke="#be9fc8"></path><path d="M422 817L380 764L359.5 773Z" fill="#bc9eca" stroke="#bc9eca"></path><path d="M0 274L0 335L79.5 271Z" fill="#bc9eca" stroke="#bc9eca"></path><path d="M279 848L299.5 815L232 741Z" fill="#be9fc8" stroke="#be9fc8"></path><path d="M306 789L299.5 815L359.5 773Z" fill="#b89ccf" stroke="#b89ccf"></path><path d="M279 848L232 741L195.5 749Z" fill="#a09ae2" stroke="#a09ae2"></path><path d="M31.5 611L48.5 670L161 615Z" fill="#b09bd7" stroke="#b09bd7"></path><path d="M48.5 670L51.5 676L94 706Z" fill="#ad9ada" stroke="#ad9ada"></path><path d="M359.5 102L312.5 87L353.5 158Z" fill="#ad9ada" stroke="#ad9ada"></path><path d="M312.5 87L259 93L353.5 158Z" fill="#b09bd7" stroke="#b09bd7"></path><path d="M504.5 93L369 82L415 172Z" fill="#b39bd4" stroke="#b39bd4"></path><path d="M359.5 102L369 82L312.5 87Z" fill="#bc9eca" stroke="#bc9eca"></path><path d="M329.5 860L422 817L359.5 773Z" fill="#b89ccf" stroke="#b89ccf"></path><path d="M446.5 793L540 769L480.5 714Z" fill="#ba9dcd" stroke="#ba9dcd"></path><path d="M540 800L540 769L446.5 793Z" fill="#a99adc" stroke="#a99adc"></path><path d="M51.5 676L97 734L94 706Z" fill="#ba9dcd" stroke="#ba9dcd"></path><path d="M94 706L97 734L195.5 749Z" fill="#ad9ada" stroke="#ad9ada"></path><path d="M0 474L0 611L46.5 517Z" fill="#ba9dcd" stroke="#ba9dcd"></path><path d="M31.5 611L0 653L48.5 670Z" fill="#bc9eca" stroke="#bc9eca"></path><path d="M48.5 670L0 653L51.5 676Z" fill="#b89ccf" stroke="#b89ccf"></path><path d="M0 735L91.5 759L97 734Z" fill="#bc9eca" stroke="#bc9eca"></path><path d="M270 58L259 93L312.5 87Z" fill="#b89ccf" stroke="#b89ccf"></path><path d="M234.5 52L215.5 91L259 93Z" fill="#be9fc8" stroke="#be9fc8"></path><path d="M259 93L215.5 91L226.5 188Z" fill="#be9fc8" stroke="#be9fc8"></path><path d="M0 180L0 274L93.5 221Z" fill="#bc9eca" stroke="#bc9eca"></path><path d="M93.5 221L0 274L79.5 271Z" fill="#a59adf" stroke="#a59adf"></path><path d="M0 180L93.5 221L0 151Z" fill="#a59adf" stroke="#a59adf"></path><path d="M540 212L540 115L415 172Z" fill="#a59adf" stroke="#a59adf"></path><path d="M540 115L504.5 93L415 172Z" fill="#a99adc" stroke="#a99adc"></path><path d="M0 735L97 734L51.5 676Z" fill="#b09bd7" stroke="#b09bd7"></path><path d="M97 734L91.5 759L195.5 749Z" fill="#a09ae2" stroke="#a09ae2"></path><path d="M0 611L0 653L31.5 611Z" fill="#b89ccf" stroke="#b89ccf"></path><path d="M449.5 853L540 800L446.5 793Z" fill="#b89ccf" stroke="#b89ccf"></path><path d="M241.5 872L279 848L195.5 749Z" fill="#b39bd4" stroke="#b39bd4"></path><path d="M299.5 815L329.5 860L359.5 773Z" fill="#b69cd1" stroke="#b69cd1"></path><path d="M422 817L449.5 853L446.5 793Z" fill="#b39bd4" stroke="#b39bd4"></path><path d="M331.5 0L270 58L312.5 87Z" fill="#a09ae2" stroke="#a09ae2"></path><path d="M331.5 0L312.5 87L369 82Z" fill="#ad9ada" stroke="#ad9ada"></path><path d="M279 848L329.5 860L299.5 815Z" fill="#be9fc8" stroke="#be9fc8"></path><path d="M431.5 881L449.5 853L422 817Z" fill="#a09ae2" stroke="#a09ae2"></path><path d="M261 0L234.5 52L270 58Z" fill="#be9fc8" stroke="#be9fc8"></path><path d="M270 58L234.5 52L259 93Z" fill="#a59adf" stroke="#a59adf"></path><path d="M215.5 91L151 66L150 154Z" fill="#a99adc" stroke="#a99adc"></path><path d="M540 115L540 81L504.5 93Z" fill="#b69cd1" stroke="#b69cd1"></path><path d="M504.5 93L462.5 37L369 82Z" fill="#ba9dcd" stroke="#ba9dcd"></path><path d="M279 848L252 910L329.5 860Z" fill="#a09ae2" stroke="#a09ae2"></path><path d="M329.5 860L431.5 881L422 817Z" fill="#a99adc" stroke="#a99adc"></path><path d="M182.5 907L241.5 872L195.5 749Z" fill="#b09bd7" stroke="#b09bd7"></path><path d="M234.5 52L151 66L215.5 91Z" fill="#be9fc8" stroke="#be9fc8"></path><path d="M540 81L462.5 37L504.5 93Z" fill="#a99adc" stroke="#a99adc"></path><path d="M431 912L431.5 881L329.5 860Z" fill="#ba9dcd" stroke="#ba9dcd"></path><path d="M449.5 853L540 917L540 800Z" fill="#a99adc" stroke="#a99adc"></path><path d="M73.5 91L93.5 221L150 154Z" fill="#bc9eca" stroke="#bc9eca"></path><path d="M0 653L0 735L51.5 676Z" fill="#a09ae2" stroke="#a09ae2"></path><path d="M182.5 907L252 910L241.5 872Z" fill="#bc9eca" stroke="#bc9eca"></path><path d="M151 66L73.5 91L150 154Z" fill="#b39bd4" stroke="#b39bd4"></path><path d="M234.5 52L201.5 0L151 66Z" fill="#b89ccf" stroke="#b89ccf"></path><path d="M0 76L30.5 98L73.5 91Z" fill="#a09ae2" stroke="#a09ae2"></path><path d="M376 0L331.5 0L369 82Z" fill="#a59adf" stroke="#a59adf"></path><path d="M462.5 37L376 0L369 82Z" fill="#ad9ada" stroke="#ad9ada"></path><path d="M73.5 91L0 151L93.5 221Z" fill="#be9fc8" stroke="#be9fc8"></path><path d="M331.5 0L261 0L270 58Z" fill="#a99adc" stroke="#a99adc"></path><path d="M102 869L195.5 749L91.5 759Z" fill="#ba9dcd" stroke="#ba9dcd"></path><path d="M241.5 872L252 910L279 848Z" fill="#be9fc8" stroke="#be9fc8"></path><path d="M540 0L454.5 0L462.5 37Z" fill="#be9fc8" stroke="#be9fc8"></path><path d="M462.5 37L454.5 0L376 0Z" fill="#a99adc" stroke="#a99adc"></path><path d="M382 960L431 912L329.5 860Z" fill="#ad9ada" stroke="#ad9ada"></path><path d="M431.5 881L540 917L449.5 853Z" fill="#b89ccf" stroke="#b89ccf"></path><path d="M0 735L0 775L91.5 759Z" fill="#a09ae2" stroke="#a09ae2"></path><path d="M91.5 0L73.5 91L151 66Z" fill="#ba9dcd" stroke="#ba9dcd"></path><path d="M73.5 91L30.5 98L0 151Z" fill="#a99adc" stroke="#a99adc"></path><path d="M261 0L201.5 0L234.5 52Z" fill="#b39bd4" stroke="#b39bd4"></path><path d="M0 775L46.5 828L91.5 759Z" fill="#b09bd7" stroke="#b09bd7"></path><path d="M46.5 828L102 869L91.5 759Z" fill="#b89ccf" stroke="#b89ccf"></path><path d="M102 869L182.5 907L195.5 749Z" fill="#a99adc" stroke="#a99adc"></path><path d="M201.5 0L150 0L151 66Z" fill="#b09bd7" stroke="#b09bd7"></path><path d="M102 869L135 900L182.5 907Z" fill="#ba9dcd" stroke="#ba9dcd"></path><path d="M91.5 886L135 900L102 869Z" fill="#b69cd1" stroke="#b69cd1"></path><path d="M540 81L540 0L462.5 37Z" fill="#a99adc" stroke="#a99adc"></path><path d="M0 775L0 817L46.5 828Z" fill="#b39bd4" stroke="#b39bd4"></path><path d="M46.5 828L91.5 886L102 869Z" fill="#a59adf" stroke="#a59adf"></path><path d="M0 936L91.5 886L46.5 828Z" fill="#be9fc8" stroke="#be9fc8"></path><path d="M512.5 960L540 917L431 912Z" fill="#a99adc" stroke="#a99adc"></path><path d="M431 912L540 917L431.5 881Z" fill="#b69cd1" stroke="#b69cd1"></path><path d="M232 960L311.5 960L252 910Z" fill="#be9fc8" stroke="#be9fc8"></path><path d="M252 910L311.5 960L329.5 860Z" fill="#b39bd4" stroke="#b39bd4"></path><path d="M232 960L252 910L182.5 907Z" fill="#b39bd4" stroke="#b39bd4"></path><path d="M232 960L182.5 907L190.5 960Z" fill="#a09ae2" stroke="#a09ae2"></path><path d="M311.5 960L382 960L329.5 860Z" fill="#a09ae2" stroke="#a09ae2"></path><path d="M91.5 0L0 76L73.5 91Z" fill="#b69cd1" stroke="#b69cd1"></path><path d="M30.5 98L0 76L0 151Z" fill="#a09ae2" stroke="#a09ae2"></path><path d="M150 0L91.5 0L151 66Z" fill="#a09ae2" stroke="#a09ae2"></path><path d="M190.5 960L182.5 907L120 960Z" fill="#bc9eca" stroke="#bc9eca"></path><path d="M120 960L182.5 907L135 900Z" fill="#b09bd7" stroke="#b09bd7"></path><path d="M382 960L512.5 960L431 912Z" fill="#b89ccf" stroke="#b89ccf"></path><path d="M512.5 960L540 960L540 917Z" fill="#bc9eca" stroke="#bc9eca"></path><path d="M91.5 886L120 960L135 900Z" fill="#a09ae2" stroke="#a09ae2"></path><path d="M86.5 960L120 960L91.5 886Z" fill="#b09bd7" stroke="#b09bd7"></path><path d="M91.5 0L0 0L0 76Z" fill="#b09bd7" stroke="#b09bd7"></path><path d="M0 936L86.5 960L91.5 886Z" fill="#b69cd1" stroke="#b69cd1"></path><path d="M0 817L0 936L46.5 828Z" fill="#b09bd7" stroke="#b09bd7"></path><path d="M0 936L0 960L86.5 960Z" fill="#ba9dcd" stroke="#ba9dcd"></path></g></svg>