<?xml version="1.0" encoding="UTF-8"?>
<svg id="Calque_1" data-name="Calque 1" xmlns="http://www.w3.org/2000/svg" xmlns:xlink="http://www.w3.org/1999/xlink" viewBox="0 0 883.06 968.67">
  <defs>
    <style>
      .cls-1 {
        fill: #ddd;
      }

      .cls-2 {
        clip-path: url(#clippath-11);
      }

      .cls-3, .cls-4 {
        fill: #fff;
      }

      .cls-5 {
        fill: #8b8b8b;
      }

      .cls-6 {
        fill: #9c9c9c;
      }

      .cls-7 {
        clip-path: url(#clippath-2);
      }

      .cls-8 {
        isolation: isolate;
      }

      .cls-9 {
        fill: #868686;
      }

      .cls-10 {
        clip-path: url(#clippath-6);
      }

      .cls-11 {
        letter-spacing: 0em;
      }

      .cls-12 {
        clip-path: url(#clippath-7);
      }

      .cls-13 {
        clip-path: url(#clippath-1);
      }

      .cls-14 {
        clip-path: url(#clippath-4);
      }

      .cls-15 {
        fill: #969696;
      }

      .cls-16 {
        fill: gray;
      }

      .cls-17 {
        fill: #8f8f8f;
      }

      .cls-18 {
        fill: #dadada;
      }

      .cls-19 {
        fill: #8e8e8e;
      }

      .cls-4 {
        font-family: BDSupperBold, 'BD Supper';
        font-size: 134.15px;
      }

      .cls-20 {
        fill: #a3a3a3;
      }

      .cls-21 {
        clip-path: url(#clippath-9);
      }

      .cls-22 {
        clip-path: url(#clippath);
      }

      .cls-23 {
        fill: #858585;
      }

      .cls-24 {
        fill: none;
      }

      .cls-25 {
        fill: #999;
      }

      .cls-26 {
        clip-path: url(#clippath-3);
      }

      .cls-27 {
        clip-path: url(#clippath-8);
      }

      .cls-28 {
        fill: #e0081b;
      }

      .cls-29 {
        fill: #7b7b7b;
      }

      .cls-30 {
        clip-path: url(#clippath-5);
      }

      .cls-31 {
        fill: #949494;
      }

      .cls-32 {
        fill: #8a8a8a;
      }

      .cls-33 {
        clip-path: url(#clippath-10);
      }

      .cls-34 {
        fill: #9e9e9e;
      }

      .cls-35 {
        fill: #919191;
      }
    </style>
    <clipPath id="clippath">
      <path class="cls-24" d="m404.94,483.87l23.19,16.68c-.19-.14-.4-.27-.61-.37s-.44-.2-.67-.28-.47-.14-.72-.18-.5-.06-.76-.06l-22.88-16.58c.23,0,.46.02.68.06s.43.09.64.16.41.15.6.25.37.21.55.33Z"/>
    </clipPath>
    <clipPath id="clippath-1">
      <path class="cls-24" d="m144.64,504.3l7.66-17.08c-.2.45-.38.92-.54,1.39s-.28.96-.39,1.45-.18,1-.23,1.5-.07,1.02-.06,1.54c.04,2.19.63,4.08,1.63,5.67s2.4,2.9,4.07,3.93,3.61,1.8,5.68,2.32,4.27.8,6.46.85c.72.02,1.44.03,2.14.04s1.4.02,2.09.03,1.37.02,2.05.02,1.34,0,2,0c6.06,0,11.61-.22,17.21-.84s11.26-1.67,17.54-3.32,13.19-3.9,21.3-6.96,17.41-6.92,28.47-11.77c.13-.06.26-.11.4-.15s.27-.08.42-.11.28-.05.43-.07.29-.02.43-.02l5.91,16.54c-.16,0-.32,0-.48.03s-.32.04-.48.08-.31.08-.47.13-.3.11-.45.17c-12.42,5.45-22.86,9.78-31.95,13.21-9.09,3.43-16.85,5.96-23.9,7.81-7.05,1.85-13.4,3.02-19.68,3.72-6.29.7-12.51.95-19.31.95-.74,0-1.49,0-2.25,0s-1.52-.01-2.3-.02-1.56-.02-2.35-.04-1.59-.03-2.4-.05c-2.46-.06-4.93-.36-7.25-.95s-4.5-1.45-6.37-2.61-3.45-2.62-4.57-4.41-1.78-3.9-1.83-6.36c-.01-.58.01-1.16.06-1.73s.14-1.13.25-1.69.26-1.1.43-1.63.37-1.05.6-1.56Z"/>
    </clipPath>
    <clipPath id="clippath-2">
      <path class="cls-24" d="m35.91,446.71l19.49-10.82c1.12-.62,2.26-1.19,3.44-1.7s2.39-.98,3.62-1.38,2.5-.75,3.79-1.04,2.6-.52,3.93-.69c9.07-1.14,18.54-2.76,28.1-5.03s19.21-5.17,28.64-8.86,18.64-8.16,27.32-13.57,16.83-11.73,24.13-19.14l-4.48,4.54c-8.2,8.31-17.34,15.41-27.08,21.48-9.74,6.06-20.07,11.08-30.65,15.22s-21.41,7.4-32.13,9.95-21.35,4.37-31.53,5.65c-1.5.19-2.97.44-4.42.77s-2.86.72-4.25,1.17-2.74.97-4.07,1.55-2.61,1.22-3.86,1.91Z"/>
    </clipPath>
    <clipPath id="clippath-3">
      <path class="cls-24" d="m212.82,277.46l.24,7.6c-.4-12.41-1.92-22.71-4.36-31.19s-5.82-15.13-9.91-20.23-8.91-8.66-14.24-10.94-11.19-3.29-17.35-3.31c-6.09,0-12.24,1.23-18.04,3.56s-11.24,5.77-15.93,10.18-8.61,9.79-11.37,16.01-4.35,13.29-4.37,21.08c0,2.94.18,6.54.81,10.46s1.71,8.14,3.49,12.33,4.26,8.35,7.68,12.14,7.81,7.19,13.4,9.87c.61.3,1.12.72,1.49,1.22s.64,1.09.76,1.7.12,1.25-.03,1.86-.44,1.2-.89,1.72c-3.41,3.94-7.03,7.27-10.78,10.05s-7.63,5.01-11.56,6.76-7.92,2.99-11.87,3.8-7.89,1.19-11.71,1.19c-.18,0-.35,0-.53,0s-.35,0-.53,0-.35,0-.53-.01-.35,0-.53-.02l-14.52-.49c.2,0,.39.01.59.02s.39,0,.59.01.4,0,.59,0,.4,0,.6,0c4.29,0,8.7-.42,13.15-1.34s8.91-2.31,13.32-4.27,8.77-4.46,12.98-7.58,8.27-6.86,12.1-11.28c.5-.58.83-1.24,1-1.93s.18-1.4.04-2.09-.43-1.34-.86-1.9-.99-1.04-1.68-1.37c-6.27-3.01-11.19-6.83-15.03-11.08s-6.63-8.91-8.62-13.62-3.21-9.44-3.92-13.83-.92-8.43-.91-11.73c.02-8.73,1.8-16.66,4.9-23.65s7.5-13.02,12.76-17.97,11.37-8.8,17.87-11.42,13.4-4,20.24-4c6.92.02,13.49,1.15,19.47,3.71s11.39,6.55,15.98,12.27,8.38,13.19,11.12,22.7,4.45,21.08,4.9,35Z"/>
    </clipPath>
    <clipPath id="clippath-4">
      <path class="cls-24" d="m442.44,384.94l8.04-6.63s-.06.05-.09.08-.06.05-.09.08-.06.05-.09.08-.06.05-.09.08c-.72.67-1.3,1.43-1.76,2.26s-.79,1.73-1.01,2.67-.32,1.92-.33,2.92.09,2.01.27,3.02c.25,1.38.88,2.46,1.77,3.32s2.02,1.48,3.25,1.93,2.58.73,3.88.89,2.57.22,3.66.22c.48,0,.92,0,1.31-.02s.74-.03,1.02-.05.51-.04.67-.06.25-.03.27-.03l-5.53,10.08s-.13.02-.32.04-.46.04-.81.07-.75.05-1.22.07-1,.03-1.57.03c-1.3,0-2.82-.06-4.38-.26s-3.17-.53-4.66-1.07-2.84-1.28-3.9-2.31-1.82-2.32-2.12-3.97c-.22-1.21-.33-2.42-.32-3.62s.13-2.37.4-3.5.66-2.2,1.21-3.2,1.25-1.91,2.11-2.71c.04-.03.07-.06.11-.1s.07-.06.11-.1.07-.06.11-.09.07-.06.11-.09Z"/>
    </clipPath>
    <clipPath id="clippath-5">
      <path class="cls-24" d="m633.11,361.47l28.23,3.29s-.07,0-.11-.01-.07,0-.11,0-.08,0-.11,0-.08,0-.11,0l-28.15-3.29s.06,0,.1,0,.06,0,.09,0,.06,0,.09,0,.06,0,.09,0Z"/>
    </clipPath>
    <clipPath id="clippath-6">
      <path class="cls-24" d="m457.61,405.75l5.53-10.08c5.01,0,10.71-.44,16.58-1.49s11.91-2.72,17.58-5.18,10.99-5.71,15.43-9.92,7.98-9.4,10.11-15.73c.11-.33.27-.63.47-.9s.43-.51.7-.7.56-.35.87-.46.65-.16.99-.17l6.93,3.22c-.41,0-.82.07-1.19.2s-.73.31-1.05.55-.6.52-.84.84-.43.69-.56,1.08c-2.56,7.58-6.81,13.8-12.12,18.85s-11.69,8.95-18.49,11.89-14.04,4.94-21.07,6.21-13.87,1.79-19.87,1.79Z"/>
    </clipPath>
    <clipPath id="clippath-7">
      <path class="cls-24" d="m341.65,121.08l24.74,37.08c-.83-1.25-1.66-2.46-2.48-3.63s-1.63-2.3-2.42-3.39-1.58-2.14-2.35-3.14-1.53-1.98-2.27-2.9c-.05-.06-.09-.12-.14-.17s-.09-.12-.13-.17-.08-.12-.13-.18-.08-.12-.12-.18l-26.73-39.82c.05.07.1.14.15.21s.1.14.15.21.1.14.16.21.11.14.16.21c.89,1.11,1.79,2.27,2.72,3.48s1.87,2.46,2.82,3.77,1.93,2.66,2.91,4.06,1.97,2.85,2.97,4.35Z"/>
    </clipPath>
    <clipPath id="clippath-8">
      <path class="cls-24" d="m702.34,464.5l-10.74-31.87c-.02-.06-.04-.11-.05-.17s-.03-.12-.04-.18-.02-.12-.02-.18,0-.13,0-.19l10.71,31.72c0,.08,0,.15,0,.23s.02.15.03.22.03.14.04.22.04.14.06.21Z"/>
    </clipPath>
    <clipPath id="clippath-9">
      <path class="cls-24" d="m670.28,254.49l6.39-4.42c.57-.39,1.15-.73,1.73-1.02s1.17-.52,1.77-.71,1.19-.32,1.79-.42,1.2-.14,1.8-.14c3.25,0,5.87,1.09,7.98,3.27s3.7,5.46,4.89,9.85,1.97,9.87,2.46,16.47.68,14.31.69,23.14l-10.31-4.12c0-7.34-.17-13.74-.57-19.23s-1.06-10.04-2.05-13.68-2.31-6.37-4.06-8.18-3.93-2.72-6.63-2.72c-.5,0-.99.04-1.49.11s-.99.19-1.49.35-.98.35-1.47.59-.96.52-1.44.85Z"/>
    </clipPath>
    <clipPath id="clippath-10">
      <path class="cls-24" d="m649.84,234.64l-1.85,7.03c.58-2.22,1-4.53,1.31-6.89s.53-4.78.72-7.22.35-4.88.55-7.3.45-4.82.81-7.16c.03-.18.06-.36.09-.54s.06-.36.09-.53.06-.36.1-.53.07-.35.1-.53l2.62-13.28c-.04.21-.08.43-.12.64s-.08.43-.12.64-.07.43-.11.64-.07.43-.1.65c-.44,2.81-.73,5.7-.98,8.61s-.44,5.86-.66,8.79-.49,5.84-.86,8.69-.88,5.63-1.58,8.29Z"/>
    </clipPath>
    <clipPath id="clippath-11">
      <path class="cls-24" d="m624.06,191.1l2.51,14.4c.4,2.29.76,4.68,1.06,7.09s.54,4.83.7,7.16.24,4.58.23,6.64-.14,3.93-.38,5.52c-.34,2.25-.85,4.19-1.49,5.88s-1.41,3.11-2.28,4.32-1.82,2.21-2.82,3.04-2.06,1.48-3.12,2.02c-.51.25-1.56.53-2.87.84s-2.88.64-4.43.99-3.09.73-4.34,1.12-2.2.8-2.58,1.22c-.89.99-1.5,2.06-1.88,3.15s-.52,2.2-.46,3.27.33,2.1.76,3.04,1.04,1.77,1.79,2.45c.11.1.24.2.37.3s.27.18.42.27.3.16.47.24.33.14.51.21l-6.65-2.43c-.21-.08-.42-.16-.61-.25s-.38-.18-.56-.28-.35-.21-.5-.32-.31-.23-.44-.36c-.9-.82-1.63-1.82-2.15-2.95s-.85-2.37-.92-3.66.1-2.63.55-3.94,1.2-2.6,2.27-3.8c.46-.51,1.6-1,3.1-1.47s3.35-.92,5.22-1.35,3.76-.83,5.34-1.2,2.84-.71,3.45-1.01c1.28-.64,2.55-1.43,3.76-2.43s2.36-2.2,3.4-3.66,1.97-3.18,2.74-5.21,1.39-4.37,1.79-7.07c.29-1.91.43-4.17.45-6.65s-.08-5.18-.27-7.99-.49-5.72-.85-8.62-.8-5.78-1.27-8.54Z"/>
    </clipPath>
  </defs>
  <g>
    <g class="cls-8">
      <g class="cls-8">
        <g class="cls-22">
          <g class="cls-8">
            <path class="cls-9" d="m425.36,499.65l-22.88-16.58s.02,0,.03,0,.02,0,.03,0,.02,0,.03,0,.02,0,.03,0l22.9,16.58s-.03,0-.04,0-.03,0-.04,0-.03,0-.04,0-.03,0-.04,0"/>
            <path class="cls-5" d="m425.51,499.65l-22.9-16.58c.05,0,.11,0,.16,0s.11,0,.16.02.11.01.16.02.11.02.16.03l22.98,16.59c-.06-.01-.12-.02-.18-.03s-.12-.02-.18-.02-.12-.01-.18-.02-.12,0-.18,0"/>
            <path class="cls-35" d="m426.24,499.73l-22.98-16.59c.06.01.11.02.17.04s.11.03.17.04.11.03.16.05.11.04.16.06l23.06,16.61c-.06-.02-.12-.04-.18-.06s-.12-.04-.18-.05-.12-.03-.19-.05-.13-.03-.19-.04"/>
            <path class="cls-15" d="m426.98,499.94l-23.06-16.61c.07.02.14.05.2.08s.13.06.2.09.13.06.19.1.12.07.19.11l23.16,16.66c-.07-.04-.14-.08-.21-.12s-.14-.08-.21-.11-.15-.07-.22-.1-.15-.06-.23-.09"/>
            <path class="cls-6" d="m427.85,500.36l-23.16-16.66s.04.03.06.04.04.03.06.04.04.03.06.04.04.03.06.04l23.19,16.68s-.04-.03-.07-.05-.05-.03-.07-.05-.05-.03-.07-.05-.05-.03-.07-.04"/>
          </g>
        </g>
      </g>
      <polygon class="cls-5" points="269.32 499.26 263.41 482.73 402.47 483.07 425.36 499.65 269.32 499.26"/>
      <g class="cls-8">
        <g class="cls-13">
          <g class="cls-8">
            <path class="cls-16" d="m144.64,504.3l7.66-17.08c-.06.14-.12.28-.18.42s-.11.29-.17.43-.11.29-.15.44-.1.3-.14.44l-7.74,17.3c.05-.17.1-.33.16-.5s.11-.33.17-.49.12-.32.19-.48.13-.32.2-.48"/>
            <path class="cls-9" d="m143.92,506.25l7.74-17.3c-.05.17-.1.34-.14.52s-.08.35-.12.52-.07.35-.1.53-.06.36-.08.53l-7.79,17.55c.03-.2.06-.4.09-.6s.07-.4.11-.59.09-.39.14-.59.1-.39.16-.58"/>
            <path class="cls-5" d="m143.42,508.61l7.79-17.55c-.02.17-.04.34-.06.51s-.03.34-.04.51-.02.34-.02.51,0,.34,0,.52c0,0,0,0,0,0s0,0,0,0,0,0,0,0,0,0,0,0l-7.81,17.8s0,0,0,0,0,0,0,0,0,0,0,0,0,0,0,0c0-.19,0-.39,0-.58s.01-.39.02-.58.03-.38.04-.57.04-.38.06-.57"/>
            <path class="cls-35" d="m143.29,510.91l7.81-17.8c0,.17.01.34.02.51s.02.33.04.5.04.33.06.49.05.32.08.48l-7.78,18.04c-.03-.18-.06-.35-.09-.53s-.05-.36-.07-.55-.03-.37-.05-.56-.02-.38-.02-.57"/>
            <path class="cls-15" d="m143.51,513.12l7.78-18.04c.04.19.08.38.12.56s.09.37.15.54.11.36.17.53.13.34.2.51l-7.71,18.31c-.08-.19-.15-.38-.22-.57s-.13-.39-.19-.59-.11-.4-.16-.61-.09-.42-.13-.63"/>
            <path class="cls-6" d="m144.22,515.53l7.71-18.31c.24.58.53,1.13.86,1.64s.71,1,1.12,1.46.86.88,1.35,1.28,1,.76,1.55,1.1l-7.11,18.98c-.61-.38-1.19-.79-1.74-1.24s-1.05-.92-1.51-1.43-.88-1.06-1.25-1.64-.69-1.2-.96-1.85"/>
            <path class="cls-15" d="m149.69,521.69l7.11-18.98c.26.16.53.31.8.46s.55.29.83.42.57.26.86.39.59.24.89.35l-6.7,19.17c-.34-.12-.67-.25-1-.39s-.65-.28-.97-.43-.63-.31-.93-.48-.6-.34-.89-.52"/>
            <path class="cls-35" d="m153.49,523.51l6.7-19.17c.3.11.61.22.93.31s.63.19.95.28.64.17.97.24.66.14.99.21l-6.23,19.3c-.37-.07-.74-.15-1.11-.23s-.73-.17-1.09-.27-.71-.2-1.06-.31-.7-.23-1.04-.35"/>
            <path class="cls-5" d="m157.79,524.67l6.23-19.3c.37.07.74.13,1.12.19s.75.1,1.13.14.76.08,1.14.1.76.05,1.14.06l-5.68,19.36c-.43-.01-.85-.04-1.28-.07s-.85-.07-1.28-.11-.85-.1-1.27-.16-.84-.13-1.25-.21"/>
            <path class="cls-9" d="m162.87,525.23l5.68-19.36s.07,0,.1,0,.07,0,.1,0,.07,0,.1,0,.07,0,.1,0c.72.02,1.44.03,2.14.04s1.4.02,2.09.03,1.37.02,2.05.02,1.34,0,2,0c1.61,0,3.19-.02,4.74-.05s3.08-.09,4.59-.16,3.01-.17,4.5-.3,2.98-.28,4.47-.46l-2.39,19.26c-1.68.2-3.34.37-5.02.51s-3.35.25-5.05.34-3.41.15-5.15.18-3.51.06-5.32.06c-.74,0-1.49,0-2.25,0s-1.52-.01-2.3-.02-1.56-.02-2.35-.04-1.59-.03-2.4-.05c-.04,0-.07,0-.11,0s-.07,0-.11,0-.07,0-.11,0-.07,0-.11,0"/>
            <path class="cls-16" d="m193.13,524.27l2.39-19.26c1.86-.23,3.72-.5,5.62-.82s3.82-.7,5.8-1.14,4.01-.94,6.11-1.51,4.28-1.2,6.54-1.91l.55,18.6c-2.54.8-4.98,1.51-7.34,2.15s-4.64,1.2-6.86,1.69-4.38.92-6.51,1.28-4.22.67-6.31.92"/>
            <path class="cls-29" d="m220.15,518.22l-.55-18.6c2.76-.87,5.66-1.84,8.74-2.94s6.33-2.32,9.79-3.69,7.14-2.86,11.06-4.5,8.1-3.44,12.56-5.4c.04-.02.07-.03.11-.05s.08-.03.11-.05.08-.03.12-.04.08-.03.12-.04l5.76,16.56s-.09.03-.13.04-.09.03-.13.05-.09.03-.13.05-.08.04-.13.05c-5.01,2.2-9.69,4.21-14.09,6.06s-8.53,3.53-12.41,5.05-7.53,2.9-10.98,4.14-6.71,2.33-9.81,3.3"/>
            <path class="cls-16" d="m267.96,499.47l-5.76-16.56c.06-.02.12-.04.18-.05s.12-.03.18-.04.12-.03.18-.04.12-.02.19-.03l5.85,16.54c-.07,0-.14.02-.21.03s-.14.03-.21.04-.14.03-.21.05-.14.04-.2.06"/>
            <path class="cls-9" d="m268.78,499.3l-5.85-16.54s.08,0,.12-.01.08,0,.12,0,.08,0,.12,0,.08,0,.12,0l5.91,16.54s-.09,0-.14,0-.09,0-.13,0-.09,0-.13.01-.09,0-.13.01"/>
          </g>
        </g>
      </g>
      <g class="cls-8">
        <g class="cls-7">
          <g class="cls-8">
            <path class="cls-29" d="m35.91,446.71l19.49-10.82c.59-.33,1.2-.64,1.81-.94s1.23-.59,1.86-.86,1.27-.53,1.91-.77,1.3-.46,1.96-.67l-18.57,10.42c-.74.23-1.47.48-2.2.75s-1.44.56-2.14.86-1.4.62-2.09.96-1.36.69-2.03,1.06"/>
            <path class="cls-16" d="m44.37,443.08l18.57-10.42c.58-.18,1.17-.35,1.76-.51s1.19-.3,1.8-.44,1.21-.25,1.83-.36,1.24-.2,1.86-.28c3.49-.44,7.03-.95,10.62-1.54s7.22-1.26,10.87-2.02,7.33-1.61,11.01-2.56,7.37-1.99,11.05-3.15l-12.37,9.1c-4.13,1.29-8.27,2.47-12.4,3.53s-8.26,2.02-12.36,2.87-8.17,1.61-12.2,2.27-8,1.23-11.92,1.72c-.7.09-1.4.19-2.09.31s-1.37.25-2.05.4-1.35.31-2.02.49-1.33.37-1.98.57"/>
            <path class="cls-29" d="m101.37,430.91l12.37-9.1c5.89-1.84,11.75-3.96,17.51-6.38s11.41-5.15,16.9-8.21,10.79-6.47,15.85-10.25,9.88-7.93,14.38-12.49l-4.48,4.54c-5.05,5.11-10.45,9.77-16.13,14.01s-11.64,8.06-17.79,11.5-12.5,6.5-18.96,9.22-13.04,5.09-19.64,7.16"/>
          </g>
        </g>
      </g>
      <g class="cls-8">
        <g class="cls-26">
          <g class="cls-8">
            <path class="cls-29" d="m212.82,277.46l.24,7.6c-.4-12.41-1.92-22.71-4.36-31.19s-5.82-15.13-9.91-20.23-8.91-8.66-14.24-10.94-11.19-3.29-17.35-3.31c-4.37,0-8.77.63-13.04,1.85s-8.43,3.02-12.31,5.36-7.49,5.22-10.68,8.59-5.95,7.23-8.15,11.53l-11.24-12.28c2.46-4.83,5.56-9.16,9.14-12.94s7.63-7.01,11.99-9.64,9.02-4.65,13.82-6.02,9.73-2.08,14.63-2.08c6.92.02,13.49,1.15,19.47,3.71s11.39,6.55,15.98,12.27,8.38,13.19,11.12,22.7,4.45,21.08,4.9,35"/>
            <path class="cls-16" d="m111.77,234.44l11.24,12.28c-.34.66-.66,1.33-.97,2.02s-.61,1.38-.89,2.08-.55,1.42-.8,2.14-.49,1.46-.71,2.2l-11.65-11.25c.25-.83.51-1.66.79-2.47s.58-1.61.9-2.4.65-1.57.99-2.33.71-1.52,1.09-2.26"/>
            <path class="cls-9" d="m108,243.91l11.65,11.25c-.19.63-.36,1.27-.53,1.92s-.32,1.3-.46,1.96-.27,1.33-.38,2-.22,1.36-.31,2.04l-11.85-10.28c.1-.77.22-1.54.35-2.29s.27-1.51.43-2.25.33-1.48.51-2.2.38-1.44.59-2.16"/>
            <path class="cls-5" d="m106.11,252.81l11.85,10.28c-.08.57-.14,1.15-.2,1.74s-.11,1.17-.15,1.77-.07,1.19-.09,1.79-.03,1.21-.03,1.82c0,.12,0,.24,0,.37s0,.25,0,.37,0,.25,0,.38,0,.26,0,.39l-11.91-9.23c0-.15,0-.29,0-.43s0-.28,0-.43,0-.28,0-.42,0-.28,0-.41c0-.69.01-1.37.04-2.04s.06-1.35.1-2.01.1-1.33.16-1.98.14-1.31.22-1.95"/>
            <path class="cls-35" d="m105.6,262.49l11.91,9.23c.02.75.04,1.52.09,2.33s.11,1.64.19,2.51.18,1.75.31,2.65.27,1.83.45,2.77l-11.78-7.98c-.2-1.06-.36-2.09-.5-3.11s-.25-2.01-.34-2.98-.16-1.91-.21-2.81-.08-1.78-.1-2.62"/>
            <path class="cls-15" d="m106.76,274l11.78,7.98c.16.84.33,1.69.53,2.55s.42,1.73.67,2.61.52,1.76.83,2.64.63,1.77,1,2.65l-11.41-6.7c-.41-.99-.78-1.99-1.12-2.98s-.65-1.98-.93-2.96-.53-1.96-.75-2.92-.42-1.92-.6-2.86"/>
            <path class="cls-6" d="m110.15,285.73l11.41,6.7c.76,1.85,1.65,3.7,2.69,5.51s2.25,3.59,3.63,5.31,2.93,3.37,4.69,4.94,3.71,3.04,5.88,4.39l-9.35-4.24c-2.44-1.52-4.63-3.17-6.6-4.92s-3.71-3.61-5.26-5.54-2.89-3.93-4.07-5.96-2.17-4.11-3.02-6.18"/>
            <path class="cls-15" d="m129.1,308.34l9.35,4.24c.35.22.7.43,1.06.64s.72.41,1.09.62.74.4,1.12.6.77.39,1.16.58c.03.02.07.03.1.05s.07.03.1.05.06.04.1.05.06.04.09.06l-8.76-3.92s-.07-.04-.11-.06-.07-.04-.11-.06-.07-.04-.11-.06-.07-.04-.11-.06c-.44-.21-.87-.43-1.3-.65s-.85-.44-1.26-.67-.82-.46-1.22-.69-.8-.47-1.19-.71"/>
            <path class="cls-6" d="m134.51,311.3l8.76,3.92c.19.12.37.25.53.39s.31.3.45.46.26.34.37.52.2.37.28.57l-8.56-3.68c-.09-.22-.2-.43-.32-.64s-.26-.4-.41-.58-.32-.36-.51-.52-.38-.31-.6-.44"/>
            <path class="cls-15" d="m136.35,313.48l8.56,3.68c.03.07.05.14.08.21s.05.14.07.21.04.14.06.21.03.14.05.22l-8.53-3.58c-.02-.08-.03-.16-.05-.24s-.04-.16-.06-.24-.05-.16-.08-.23-.06-.15-.09-.23"/>
            <path class="cls-35" d="m136.62,314.43l8.53,3.58c.01.06.02.11.03.17s.02.12.02.17.01.12.01.17,0,.12,0,.17l-8.53-3.49c0-.07,0-.13,0-.2s0-.13-.02-.2-.01-.13-.02-.19-.02-.13-.03-.19"/>
            <path class="cls-5" d="m136.7,315.21l8.53,3.49c0,.05,0,.11,0,.16s0,.11,0,.16,0,.11-.01.16-.01.11-.02.16l-8.53-3.41c0-.06.01-.12.02-.18s.01-.12.01-.18,0-.12,0-.18,0-.12,0-.18"/>
            <path class="cls-9" d="m136.66,315.93l8.53,3.41c0,.05-.02.11-.02.16s-.02.11-.03.16-.02.11-.04.16-.03.11-.04.16l-8.55-3.34c.02-.06.03-.12.05-.18s.03-.12.04-.18.02-.12.03-.18.02-.12.03-.18"/>
            <path class="cls-16" d="m136.51,316.65l8.55,3.34c-.02.06-.04.12-.06.18s-.04.12-.07.18-.05.12-.07.17-.05.11-.08.17l-8.58-3.25c.03-.06.06-.13.09-.19s.06-.13.08-.2.05-.13.07-.2.04-.13.06-.2"/>
            <path class="cls-29" d="m136.2,317.43l8.58,3.25c-.04.07-.08.14-.12.21s-.09.14-.13.21-.09.14-.15.2-.1.13-.16.2c-3.41,3.94-7.03,7.27-10.78,10.05s-7.63,5.01-11.56,6.76-7.92,2.99-11.87,3.8-7.89,1.19-11.71,1.19c-.18,0-.35,0-.53,0s-.35,0-.53,0-.35,0-.53-.01-.35,0-.53-.02l-14.52-.49c.2,0,.39.01.59.02s.39,0,.59.01.4,0,.59,0,.4,0,.6,0c4.29,0,8.7-.42,13.15-1.34s8.91-2.31,13.32-4.27,8.77-4.46,12.98-7.58,8.27-6.86,12.1-11.28c.06-.07.12-.15.18-.22s.11-.15.16-.23.1-.16.15-.23.09-.16.13-.24"/>
          </g>
        </g>
      </g>
      <path class="cls-18" d="m425.36,499.65c.66,0,1.28.14,1.85.38s1.08.59,1.51,1.02.78.94,1.01,1.51.37,1.19.37,1.85v94.66c0,.66-.13,1.28-.33,1.85s-.46,1.08-.73,1.51-.52.78-.72,1.02-.32.37-.31.37l-409.58-1.03c-1.33,0-2.46-.14-3.41-.38s-1.71-.6-2.31-1.03-1.03-.95-1.31-1.53-.41-1.21-.4-1.87l1.3-111.74c.07-5.73,1.19-11.23,3.19-16.3s4.88-9.7,8.47-13.71,7.87-7.38,12.69-9.94,10.15-4.29,15.84-5c17.4-2.18,36.12-5.98,54.41-12.21s36.15-14.9,51.84-26.81c15.69-11.91,29.21-27.07,38.82-46.3,9.61-19.22,15.31-42.5,15.36-70.66.03-15.47-1.37-28.3-3.94-38.84s-6.31-18.8-10.95-25.12c-4.65-6.32-10.2-10.71-16.4-13.53s-13.05-4.05-20.29-4.07c-6.84,0-13.73,1.38-20.24,4s-12.61,6.47-17.87,11.42-9.66,10.98-12.76,17.97-4.88,14.92-4.9,23.65c0,3.3.2,7.34.91,11.73s1.92,9.13,3.92,13.83,4.77,9.37,8.62,13.62,8.76,8.07,15.03,11.08c.69.33,1.25.81,1.68,1.37s.72,1.22.86,1.9.13,1.4-.04,2.09-.5,1.35-1,1.93c-3.83,4.42-7.89,8.16-12.1,11.28s-8.56,5.63-12.98,7.58-8.88,3.35-13.32,4.27-8.85,1.34-13.15,1.34c-11.97-.03-23.21-2.88-33.34-8.04s-19.15-12.65-26.67-21.96-13.54-20.44-17.67-32.91S-.02,253.65,0,239.02c.03-16.29,3.95-33.69,11.58-50.64s18.96-33.44,33.81-47.9,33.21-26.88,54.9-35.69,46.71-14,74.87-14c11.46.03,23.05,1.18,34.48,3.57s22.71,5.99,33.54,10.92,21.22,11.18,30.87,18.85c9.66,7.67,18.58,16.75,26.49,27.35,5.49,7.36,10.72,15.41,15.5,24.19s9.1,18.31,12.78,28.63c3.68,10.32,6.72,21.43,8.92,33.39,2.2,11.96,3.57,24.77,3.91,38.48.19,7.62-.83,16.83-2.55,26.56s-4.16,19.96-6.81,29.64-5.52,18.79-8.1,26.27-4.89,13.31-6.43,16.44c-3.4,6.92-9.22,17.86-17.5,30.41s-19.05,26.68-32.34,39.97-29.09,25.74-47.48,34.91-39.34,15.06-62.93,15.23c-2.03.01-3.94.47-5.66,1.28s-3.26,1.96-4.54,3.36-2.3,3.06-3,4.87-1.06,3.78-1.02,5.8c.05,2.46.71,4.57,1.83,6.36s2.69,3.25,4.57,4.41,4.05,2.02,6.37,2.61,4.79.89,7.25.95c.81.02,1.61.04,2.4.05s1.57.03,2.35.04,1.54.02,2.3.02,1.51,0,2.25,0c6.8,0,13.03-.24,19.31-.95,6.29-.7,12.63-1.87,19.68-3.72,7.05-1.85,14.8-4.38,23.9-7.81,9.09-3.43,19.53-7.76,31.95-13.21.15-.07.3-.12.45-.17s.31-.09.47-.13.32-.06.48-.08.32-.03.48-.03l156.04.39Z"/>
    </g>
    <g class="cls-8">
      <g class="cls-8">
        <g class="cls-14">
          <g class="cls-8">
            <path class="cls-23" d="m442.44,384.94l8.04-6.63s-.06.05-.09.08-.06.05-.09.08-.06.05-.09.08-.06.05-.09.08c-.2.19-.39.38-.57.58s-.35.41-.51.62-.31.43-.45.65-.27.45-.39.69l-8.49,7.2c.14-.28.3-.56.46-.82s.34-.53.53-.78.39-.5.61-.74.44-.47.68-.69c.04-.03.07-.06.11-.1s.07-.06.11-.1.07-.06.11-.09.07-.06.11-.09"/>
            <path class="cls-32" d="m439.72,388.36l8.49-7.2c-.07.14-.14.28-.2.42s-.12.29-.18.43-.11.29-.16.44-.1.3-.14.45l-8.63,7.55c.05-.18.11-.36.17-.54s.13-.35.2-.53.14-.35.22-.52.16-.34.24-.51"/>
            <path class="cls-17" d="m438.9,390.45l8.63-7.55c-.04.15-.08.3-.12.45s-.07.3-.1.45-.06.31-.09.46-.05.31-.07.47l-8.7,7.91c.02-.19.05-.37.08-.56s.07-.37.1-.55.08-.36.13-.54.09-.36.15-.54"/>
            <path class="cls-31" d="m438.43,392.64l8.7-7.91c-.02.18-.04.35-.06.53s-.03.36-.04.53-.02.36-.02.54,0,.36,0,.54l-8.73,8.34c0-.22,0-.43,0-.65s.01-.43.02-.65.03-.43.05-.64.04-.42.07-.63"/>
            <path class="cls-25" d="m438.3,395.21l8.73-8.34c0,.22.01.43.03.65s.03.43.05.65.05.44.08.65.07.44.1.65c0,0,0,0,0,0s0,0,0,0,0,0,0,0,0,0,0,0l-8.67,8.86s0,0,0-.01,0,0,0-.01,0,0,0-.01,0,0,0-.01c-.05-.26-.09-.52-.13-.78s-.07-.52-.1-.78-.05-.52-.06-.78-.03-.52-.03-.78"/>
            <path class="cls-34" d="m438.62,398.39l8.67-8.86c.02.11.04.22.07.33s.05.21.08.32.06.21.1.31.07.2.11.3l-8.6,9.11c-.05-.12-.09-.23-.14-.35s-.08-.24-.12-.37-.07-.25-.1-.38-.06-.26-.08-.4"/>
            <path class="cls-20" d="m439.06,399.89l8.6-9.11c.13.33.3.63.48.92s.39.55.62.8.47.48.74.69.54.41.84.59l-8.07,9.71c-.35-.22-.69-.46-1-.71s-.61-.53-.88-.83-.52-.62-.74-.96-.41-.71-.57-1.1"/>
            <path class="cls-34" d="m442.26,403.49l8.07-9.71c.15.09.31.18.47.27s.32.17.49.25.33.15.5.22.34.14.52.2l-7.68,9.89c-.21-.08-.42-.16-.62-.24s-.41-.17-.6-.27-.39-.19-.58-.29-.38-.21-.56-.32"/>
            <path class="cls-25" d="m444.63,404.62l7.68-9.89c.21.07.41.14.63.21s.42.13.64.18.43.11.65.16.44.09.65.13l-7.17,10.03c-.26-.05-.52-.1-.78-.16s-.52-.12-.78-.19-.51-.14-.77-.22-.5-.16-.75-.25"/>
            <path class="cls-31" d="m447.7,405.44l7.17-10.03c.33.06.66.12.99.16s.66.09.98.12.64.06.96.08.62.04.92.05l-6.4,10.11c-.36-.01-.73-.03-1.1-.06s-.76-.06-1.15-.09-.78-.09-1.17-.14-.79-.12-1.19-.19"/>
            <path class="cls-17" d="m452.31,405.93l6.4-10.11c.1,0,.2,0,.29,0s.19,0,.29,0,.19,0,.28,0,.18,0,.27,0c.48,0,.92,0,1.31-.02s.73-.03,1.02-.05.51-.04.67-.06.26-.03.27-.03l-5.53,10.08s-.14.02-.33.04-.47.04-.81.07-.75.05-1.22.07-1,.03-1.57.03c-.11,0-.22,0-.33,0s-.22,0-.34,0-.23,0-.35,0-.23,0-.35-.01"/>
            <polyline class="cls-32" points="457.6 405.75 463.13 395.67 463.13 395.67 463.13 395.67 463.13 395.67 463.13 395.67 457.61 405.75 457.61 405.75 457.61 405.75 457.6 405.75 457.6 405.75"/>
          </g>
        </g>
      </g>
      <g class="cls-8">
        <g class="cls-30">
          <g class="cls-8">
            <path class="cls-17" d="m660.89,364.73l-28.15-3.29s.02,0,.03,0,.02,0,.03,0,.02,0,.03,0,.02,0,.03,0l28.18,3.29s-.02,0-.03,0-.02,0-.03,0-.02,0-.03,0-.02,0-.03,0"/>
            <path class="cls-31" d="m661.03,364.74l-28.18-3.29s.04,0,.07,0,.04,0,.07,0,.04,0,.07,0,.04,0,.06,0l28.23,3.29s-.05,0-.08,0-.05,0-.08,0-.05,0-.08,0-.05,0-.08,0"/>
          </g>
        </g>
      </g>
      <polygon class="cls-19" points="532.8 364.35 525.87 361.13 632.73 361.45 660.89 364.73 532.8 364.35"/>
      <g class="cls-8">
        <g class="cls-10">
          <g class="cls-8">
            <path class="cls-17" d="m457.61,405.75l5.53-10.08c.87,0,1.76-.01,2.68-.04s1.84-.07,2.79-.13,1.91-.13,2.88-.22,1.96-.19,2.95-.31l-3.28,9.94c-1.19.15-2.37.27-3.54.38s-2.32.19-3.45.26-2.25.12-3.34.15-2.16.05-3.21.05"/>
            <path class="cls-32" d="m471.14,404.92l3.28-9.94c1.28-.16,2.58-.34,3.89-.55s2.63-.46,3.95-.73,2.65-.58,3.98-.93,2.65-.72,3.97-1.13l-.15,9.28c-1.58.49-3.17.95-4.76,1.36s-3.18.78-4.77,1.11-3.17.62-4.73.88-3.12.48-4.66.66"/>
            <path class="cls-23" d="m490.06,400.91l.15-9.28c3.54-1.11,7.03-2.48,10.35-4.15s6.48-3.64,9.35-5.94,5.46-4.95,7.66-7.97,3.99-6.41,5.28-10.22c.08-.25.2-.49.33-.71s.3-.42.48-.6.38-.33.6-.46.45-.24.69-.31l6.75,3.25c-.29.09-.57.22-.83.37s-.5.34-.72.56-.41.45-.57.71-.3.55-.4.85c-1.54,4.56-3.69,8.63-6.32,12.25s-5.73,6.78-9.18,9.55-7.22,5.12-11.2,7.12-8.16,3.64-12.41,4.97"/>
            <path class="cls-32" d="m531.68,364.53l-6.75-3.25s.09-.03.14-.04.09-.02.14-.03.09-.02.14-.03.1-.02.14-.02l6.86,3.23c-.06,0-.12.02-.17.03s-.11.02-.17.03-.11.03-.17.04-.11.03-.17.05"/>
            <path class="cls-17" d="m532.36,364.38l-6.86-3.23s.06,0,.09,0,.06,0,.09,0,.06,0,.09,0,.06,0,.09,0l6.93,3.22s-.07,0-.11,0-.07,0-.11,0-.07,0-.11,0-.07,0-.11.01"/>
          </g>
        </g>
      </g>
      <g class="cls-8">
        <g class="cls-12">
          <g class="cls-8">
            <path class="cls-23" d="m341.65,121.08l24.74,37.08c-.83-1.25-1.66-2.46-2.48-3.63s-1.63-2.3-2.42-3.39-1.58-2.14-2.35-3.14-1.53-1.98-2.27-2.9c-.05-.06-.09-.12-.14-.17s-.09-.12-.13-.17-.08-.12-.13-.18-.08-.12-.12-.18l-26.73-39.82c.05.07.1.14.15.21s.1.14.15.21.1.14.16.21.11.14.16.21c.89,1.11,1.79,2.27,2.72,3.48s1.87,2.46,2.82,3.77,1.93,2.66,2.91,4.06,1.97,2.85,2.97,4.35"/>
          </g>
        </g>
      </g>
      <path class="cls-1" d="m428.32,85.98c.29,0,.57.03.84.09s.54.15.79.27.49.26.71.44.42.37.61.59c1.59,1.92,4.7,5.83,8.78,11.58s9.11,13.34,14.54,22.62,11.24,20.26,16.88,32.8c5.64,12.53,11.1,26.62,15.81,42.11,4.88,16.06,9.12,33.73,12.25,51.53,3.13,17.81,5.16,35.75,5.62,52.34.46,16.59-.65,31.84-3.79,44.27-3.14,12.42-8.31,22.02-15.97,27.31-3.96,2.74-8.17,4.49-12.37,5.7s-8.41,1.87-12.36,2.41-7.65.97-10.84,1.7-5.88,1.78-7.82,3.58c-.86.8-1.56,1.72-2.11,2.71s-.94,2.07-1.21,3.2-.39,2.3-.4,3.5.1,2.41.32,3.62c.29,1.65,1.06,2.95,2.12,3.97s2.42,1.77,3.9,2.31,3.09.87,4.66,1.07,3.08.26,4.38.26c.58,0,1.1-.01,1.57-.03s.88-.04,1.22-.07.61-.05.81-.07.3-.03.32-.04c6,0,12.84-.52,19.87-1.79s14.27-3.26,21.07-6.21,13.18-6.84,18.49-11.89,9.56-11.27,12.12-18.85c.13-.39.32-.76.56-1.08s.52-.61.84-.84.67-.42,1.05-.55.78-.2,1.19-.2l128.09.38c.52,0,1.02.1,1.48.29s.87.46,1.21.8.63.75.83,1.2.31.95.32,1.47l1.59,94.96c0,.54-.09,1.05-.28,1.51s-.47.89-.82,1.24-.76.64-1.23.84-.97.31-1.51.31l-86.06-.08c-.53,0-1.04.11-1.5.3s-.87.48-1.22.83-.63.77-.82,1.23-.3.97-.29,1.5l1.22,132.43h-2.68l-37.69.08-61.22.17c-.53,0-1.04-.11-1.5-.3s-.87-.47-1.22-.82-.63-.76-.82-1.21-.3-.96-.3-1.49l-.32-128.75c0-.53-.11-1.03-.31-1.48s-.48-.87-.82-1.21-.76-.62-1.22-.82-.96-.3-1.49-.3l-116.79-.15-16.43-.3c-3.33-.06-6.26-1.08-8.64-2.74s-4.22-3.95-5.38-6.55-1.62-5.51-1.25-8.4,1.56-5.76,3.74-8.28c16.05-18.62,28.61-36.41,38.31-53.6,9.69-17.2,16.52-33.8,21.12-50.07,4.59-16.27,6.95-32.2,7.7-48.05.75-15.85-.11-31.61-1.94-47.54-1.95-16.9-5.15-32.4-9.14-46.51-4-14.11-8.8-26.83-13.94-38.17s-10.63-21.31-16-29.92-10.64-15.85-15.35-21.74c-1.56-1.96-2.38-4.15-2.57-6.34s.24-4.37,1.19-6.32,2.4-3.64,4.24-4.85,4.08-1.94,6.58-1.94h88.66Z"/>
    </g>
    <g class="cls-8">
      <g class="cls-8">
        <g class="cls-27">
          <g class="cls-8">
            <path class="cls-23" d="m702.34,464.5l-10.74-31.87c-.02-.06-.04-.11-.05-.17s-.03-.12-.04-.18-.02-.12-.02-.18,0-.13,0-.19l10.71,31.72c0,.08,0,.15,0,.23s.02.15.03.22.03.14.04.22.04.14.06.21"/>
          </g>
        </g>
      </g>
      <polygon class="cls-16" points="702.2 463.62 691.48 431.9 689.47 296.4 699.78 300.53 702.2 463.62"/>
      <g class="cls-8">
        <g class="cls-21">
          <g class="cls-8">
            <path class="cls-23" d="m699.78,300.53l-10.31-4.12c0-7.34-.17-13.74-.57-19.23s-1.06-10.04-2.05-13.68-2.31-6.37-4.06-8.18-3.93-2.72-6.63-2.72c-.5,0-.99.04-1.49.11s-.99.19-1.49.35-.98.35-1.47.59-.96.52-1.44.85l6.39-4.42c.57-.39,1.15-.73,1.73-1.02s1.17-.52,1.77-.71,1.19-.32,1.79-.42,1.2-.14,1.8-.14c3.25,0,5.87,1.09,7.98,3.27s3.7,5.46,4.89,9.85,1.97,9.87,2.46,16.47.68,14.31.69,23.14"/>
          </g>
        </g>
      </g>
      <g class="cls-8">
        <g class="cls-33">
          <g class="cls-8">
            <path class="cls-23" d="m649.84,234.64l-1.85,7.03c.58-2.22,1-4.53,1.31-6.89s.53-4.78.72-7.22.35-4.88.55-7.3.45-4.82.81-7.16c.03-.18.06-.36.09-.54s.06-.36.09-.53.06-.36.1-.53.07-.35.1-.53l2.62-13.28c-.04.21-.08.43-.12.64s-.08.43-.12.64-.07.43-.11.64-.07.43-.1.65c-.44,2.81-.73,5.7-.98,8.61s-.44,5.86-.66,8.79-.49,5.84-.86,8.69-.88,5.63-1.58,8.29"/>
          </g>
        </g>
      </g>
      <g class="cls-8">
        <g class="cls-2">
          <g class="cls-8">
            <path class="cls-25" d="m624.06,191.1l2.51,14.4c.27,1.53.51,3.1.74,4.7s.43,3.21.6,4.82.32,3.2.42,4.76.18,3.08.21,4.53l-2.11-10.57c-.04-1.75-.12-3.57-.25-5.45s-.3-3.8-.51-5.73-.45-3.88-.72-5.8-.57-3.82-.89-5.65"/>
            <path class="cls-31" d="m626.44,213.73l2.11,10.57c.01.66.02,1.31.01,1.94s-.02,1.25-.04,1.84-.06,1.17-.1,1.72-.1,1.08-.16,1.58l-2.16-9.12c.08-.61.14-1.24.2-1.91s.09-1.36.12-2.07.04-1.46.05-2.22,0-1.54-.02-2.34"/>
            <path class="cls-17" d="m626.09,222.27l2.16,9.12s-.01.09-.02.13-.01.09-.02.13-.01.09-.02.13-.01.09-.02.13c-.06.38-.12.74-.18,1.1s-.14.71-.21,1.05-.15.68-.24,1-.17.65-.26.96l-2.36-8.18c.11-.37.22-.76.32-1.15s.2-.8.29-1.21.18-.83.25-1.27.15-.87.22-1.33c0-.05.02-.1.02-.15s.01-.1.02-.16.01-.1.02-.16.01-.11.02-.16"/>
            <path class="cls-32" d="m624.92,227.84l2.36,8.18c-.1.35-.21.7-.33,1.03s-.24.66-.36.98-.25.62-.39.92-.27.59-.41.87l-2.67-7.4c.17-.34.34-.69.5-1.04s.32-.73.47-1.11.29-.77.43-1.18.27-.82.4-1.25"/>
            <path class="cls-23" d="m623.13,232.42l2.67,7.4c-.48.94-1.01,1.79-1.57,2.55s-1.16,1.43-1.79,2.03-1.27,1.12-1.94,1.57-1.34.85-2.03,1.19c-.51.25-1.56.53-2.87.84s-2.88.64-4.43.99-3.09.73-4.34,1.12-2.2.8-2.58,1.22c-.15.16-.29.33-.42.5s-.26.34-.37.51-.23.34-.33.52-.2.35-.29.53l-7.34-4.64c.11-.21.22-.42.35-.63s.26-.42.4-.62.29-.41.45-.61.33-.4.5-.6c.46-.51,1.6-1,3.1-1.47s3.35-.92,5.22-1.35,3.76-.83,5.34-1.2,2.84-.71,3.45-1.01c.82-.41,1.64-.88,2.44-1.43s1.58-1.18,2.33-1.89,1.47-1.53,2.15-2.44,1.31-1.93,1.89-3.07"/>
            <path class="cls-32" d="m595.51,248.75l7.34,4.64c-.06.12-.12.25-.18.37s-.11.25-.16.37-.1.25-.14.37-.08.25-.12.38l-7.46-4.34c.04-.15.09-.3.15-.45s.11-.3.17-.45.12-.3.19-.45.14-.3.21-.44"/>
            <path class="cls-17" d="m594.79,250.54l7.46,4.34c-.03.11-.06.22-.09.33s-.05.22-.08.33-.04.22-.06.33-.04.22-.05.33l-7.52-4.07c.02-.13.04-.26.06-.39s.05-.26.08-.39.06-.26.09-.39.07-.26.11-.39"/>
            <path class="cls-31" d="m594.45,252.11l7.52,4.07c-.01.11-.03.21-.04.32s-.02.21-.02.32,0,.21-.01.32,0,.21,0,.32l-7.53-3.81c0-.13,0-.25,0-.38s0-.26.01-.38.02-.26.03-.38.03-.26.04-.39"/>
            <path class="cls-25" d="m594.37,253.65l7.53,3.81c0,.11,0,.23.01.34s.02.23.03.34.03.23.04.34.03.22.06.33l-7.51-3.54c-.02-.13-.05-.27-.07-.4s-.04-.27-.05-.41-.03-.27-.03-.41-.01-.27-.02-.41"/>
            <path class="cls-34" d="m594.54,255.28l7.51,3.54c.03.14.06.28.09.42s.07.28.11.41.08.27.13.41.1.27.15.4l-7.41-3.2c-.06-.16-.13-.32-.18-.48s-.11-.32-.16-.49-.09-.33-.13-.5-.08-.34-.11-.51"/>
            <path class="cls-20" d="m595.12,257.25l7.41,3.2c.11.27.24.53.37.79s.29.5.45.73.34.46.53.68.39.42.59.61c.05.04.09.08.14.12s.1.08.15.12.1.08.16.11.11.07.17.11l-6.89-2.54c-.07-.04-.13-.08-.2-.13s-.13-.09-.19-.13-.12-.09-.18-.14-.11-.1-.17-.15c-.25-.23-.49-.47-.72-.73s-.44-.53-.63-.81-.38-.58-.54-.88-.32-.62-.45-.95"/>
            <path class="cls-34" d="m598.19,261.17l6.89,2.54c.08.05.17.1.26.15s.18.1.28.14.19.09.3.13.2.08.31.12l-6.65-2.43c-.13-.05-.25-.1-.37-.15s-.24-.1-.36-.16-.23-.11-.34-.17-.21-.12-.32-.18"/>
          </g>
        </g>
      </g>
      <path class="cls-1" d="m581.79,85.98c.25,0,.49.03.72.1s.45.16.66.28.39.27.56.44.32.37.44.58c.97,1.75,2.8,5.12,5.24,9.99,2.44,4.87,5.49,11.23,8.9,18.95s7.18,16.81,11.06,27.14,7.87,21.88,11.73,34.54c.82,2.7,1.65,6.16,2.39,10s1.42,8.07,1.93,12.31.87,8.49.99,12.38.01,7.42-.41,10.21c-.41,2.7-1.02,5.04-1.79,7.07s-1.7,3.75-2.74,5.21-2.19,2.66-3.4,3.66-2.48,1.79-3.76,2.43c-.61.3-1.87.64-3.45,1.01s-3.47.77-5.34,1.2-3.72.88-5.22,1.35-2.64.96-3.1,1.47c-1.07,1.19-1.81,2.48-2.27,3.8s-.63,2.65-.55,3.94.4,2.53.92,3.66,1.26,2.13,2.15,2.95c.44.4.98.73,1.61,1.01s1.35.49,2.13.66,1.63.29,2.52.36,1.82.11,2.77.11c1.49,0,3.04-.08,4.56-.22s3-.33,4.37-.55,2.63-.46,3.69-.7,1.92-.47,2.5-.67c1.83-.62,3.54-1.16,5.2-1.74s3.26-1.19,4.85-1.94,3.19-1.65,4.83-2.8,3.33-2.56,5.12-4.33c3.05-3.02,5.18-6.54,6.7-10.4s2.43-8.06,3.04-12.42c.61-4.36.92-8.88,1.25-13.4s.67-9.02,1.34-13.34c1.22-7.88,3.87-15.2,7.74-21.75s8.96-12.32,15.08-17.1,13.25-8.59,21.2-11.19,16.73-4.01,26.12-4c13.35,0,24.16,2.49,32.87,7.1,8.71,4.6,15.33,11.32,20.29,19.79s8.29,18.7,10.42,30.32c2.13,11.62,3.06,24.63,3.24,38.68l.11,221.42c0,.38-.08.73-.21,1.06s-.34.62-.59.87-.54.45-.87.59-.68.21-1.06.21l-83.35.11c-.38,0-.73-.08-1.06-.21s-.62-.34-.87-.58-.45-.54-.59-.87-.21-.69-.21-1.06l-2.42-163.1c0-8.83-.2-16.54-.69-23.14s-1.27-12.09-2.46-16.47-2.78-7.66-4.89-9.85-4.73-3.27-7.98-3.27c-2.44,0-4.91.74-7.23,2.39s-4.49,4.19-6.36,7.81-3.43,8.3-4.52,14.22-1.72,13.08-1.71,21.64l.08,30.28c0,.38-.07.74-.21,1.07s-.34.62-.58.87-.54.45-.87.59-.68.21-1.06.21l-95.47.05c-2.82,0-5.51-.56-7.97-1.58s-4.67-2.49-6.54-4.32-3.4-4-4.48-6.43-1.7-5.1-1.77-7.91c-.13-5.75-.42-13.17-.98-21.82s-1.38-18.53-2.57-29.22c-1.19-10.68-2.76-22.17-4.8-34.02-2.04-11.85-4.57-24.06-7.67-36.21-1.92-7.49-4.73-15.53-8.05-23.69s-7.15-16.41-11.1-24.33c-3.95-7.92-8.02-15.5-11.81-22.29s-7.33-12.79-10.2-17.56c-.76-1.27-1.11-2.63-1.11-3.95s.36-2.61,1-3.74,1.55-2.1,2.68-2.78,2.47-1.09,3.96-1.09h87.38Z"/>
    </g>
    <path id="path3135" class="cls-28" d="m822.05,94.4c11.59-5.11,22.28-10.7,32.63-16.75,10.75-6.29,21.46-18.31,25.06-27.23,9.79-24.2-3.74-36.65-18.49-44.6-12.23-6.59-37.1-13.96-54.11,17.13-9.51,17.37-8.18,40.75-.92,64.01-13.66,5.1-30.09,10.14-50.59,14.76,1.13,4.62,2.75,8.18,5.33,12.61,18.73-4.33,34.94-9.39,49.6-15.16,6.88,17.21,16.58,33.76,27.09,47.07,3.89.24,9.65-1.89,12.12-5.03-13.03-18.3-21.91-33.65-27.72-46.81m-3.92-64.71c5.97-14.59,22.5-22.12,36.58-14.44,12.64,6.88,19.82,16.29,12.75,31.45-4.16,8.92-15,18.79-25.73,24.38-7.05,3.66-14.97,7.55-24.3,11.46-7.85-23.49-4.89-39.22.7-52.85"/>
    <g>
      <path class="cls-3" d="m673.39,513.88c7.85,4.21,13.72,9.92,17.6,17.17,3.89,7.23,5.83,15.45,5.83,24.64s-1.94,17.39-5.83,24.64c-3.89,7.23-9.75,12.96-17.6,17.17-7.85,4.21-17.5,6.3-28.96,6.3h-34.85v-96.2h34.85c11.46,0,21.12,2.1,28.96,6.3v-.02Zm-29.2,67.53c17.77,0,26.67-8.57,26.67-25.74,0-9.1-2.25-15.66-6.74-19.7-4.5-4.03-11.13-6.04-19.91-6.04h-9.24v51.48h9.24-.02Z"/>
      <path class="cls-3" d="m745.13,527.71v17.93h45.71v18.84h-45.71v19.1h45.71v20.15h-71.11v-96.2h71.11v20.15h-45.71v.02Z"/>
    </g>
    <g>
      <path class="cls-3" d="m250.99,770.88h-42.57v-130.9h42.57v130.9Z"/>
      <path class="cls-3" d="m407.89,769.18l-66.8-105.78h-5.35s16.92,28.47,16.92,54.49v51.31h-37.05v-130.9h49.69l.17-.17v.17l66.98,105.61h5.35s-16.92-26.7-16.92-54.32v-51.31h37.05v130.9h-50.06.02Z"/>
      <path class="cls-3" d="m627.81,732.59c0,31.84-33.57,41.57-62.41,41.57-24.5,0-51.16-7.78-65.32-16.81l14.52-27.06c16.34,10.09,71.49,21.05,71.49,3.71,0-22.29-79.84-4.6-79.84-54.83,0-28.3,27.41-42.46,58.6-42.46,21.96,0,40.47,5.65,57.51,16.1l-15.24,26.53c-26.49-17.17-59.87-15.93-59.87-1.06,0,18.4,80.56,4.78,80.56,54.32Z"/>
      <path class="cls-3" d="m711.43,637.77h47.96l47.18,131.79h-34.51l-7.12-19.45h-57.47l-6.34,19.45h-34.83l45.12-131.79h0Zm43.86,85.8l-9.98-27.06c-5.86-15.93-9.81-19.98-6.97-39.26h-6.34c2.69,19.28-1.43,22.99-6.81,39.26l-8.87,27.06h38.96Z"/>
    </g>
    <g>
      <path class="cls-3" d="m124.4,733.96v30.42H13.64v-130.91h38.93v100.49h71.83Z"/>
      <path class="cls-3" d="m132.41,668.23c-2.3,4.43-5.48,7.85-9.56,10.26-4.08,2.41-8.52,3.63-13.36,3.63-5.42,0-9.58-1.04-12.47-3.1-2.89-2.06-4.81-4.09-5.76-6.11,2.72.83,5.2,1.23,7.43,1.23,3.66,0,6.75-.8,9.29-2.38,2.54-1.6,3.8-3.74,3.8-6.46,0-1.06-.18-2.13-.53-3.18-4.48.35-8.11-.94-10.89-3.88-2.77-2.94-4.16-6.67-4.16-11.14,0-4.96,1.74-8.98,5.21-12.12,3.49-3.12,7.82-4.68,13-4.68,6.36,0,11.53,2.16,15.48,6.46,3.95,4.3,5.93,9.7,5.93,16.19,0,5.79-1.15,10.89-3.45,15.3l.03-.02Z"/>
    </g>
  </g>
  <text class="cls-4" transform="translate(7.58 922.1)"><tspan class="cls-11" x="0" y="0">4</tspan><tspan x="89.09" y="0">8E ÉDITION</tspan></text>
</svg>